<svg xmlns="http://www.w3.org/2000/svg" xmlns:xlink="http://www.w3.org/1999/xlink" version="1.1" x="0px" y="0px" viewBox="0 0 100 125" enable-background="new 0 0 100 100" xml:space="preserve"><path d="M50.1,93.1c7.2,0,13-5.8,13-13c0-7.2-5.8-13-13-13c-1,0-2,0.1-3,0.4l-20.8-34c-2.4,2.2-5.5,3.8-8.9,4.4l21.6,35.4  c-1.2,2-2,4.3-2,6.9C37.1,87.3,43,93.1,50.1,93.1z M50.1,75.2c2.7,0,4.8,2.2,4.8,4.8c0,2.7-2.2,4.8-4.8,4.8c-2.7,0-4.8-2.2-4.8-4.8  C45.3,77.4,47.5,75.2,50.1,75.2z M25.5,13.8C23.3,9.7,19,6.9,14.1,6.9c-7.2,0-13,5.8-13,13c0,7.2,5.8,13,13,13  c5.9,0,10.8-3.9,12.5-9.2h41.6c-0.3-1.2-0.4-2.5-0.4-3.8c0-2.2,0.4-4.2,1.1-6.1H25.5z M14.1,24.8c-2.7,0-4.8-2.2-4.8-4.8  c0-2.7,2.2-4.8,4.8-4.8c2.7,0,4.8,2.2,4.8,4.8C18.9,22.6,16.7,24.8,14.1,24.8z M56,62.8c3.2,1.1,6,3,8.2,5.6l21.7-35.4  c0,0,0.1,0,0.1,0c7.2,0,13-5.8,13-13c0-7.2-5.8-13-13-13c-7.2,0-13,5.8-13,13c0,3.5,1.4,6.7,3.7,9.1L56,62.8z M85.9,15.1  c2.7,0,4.8,2.2,4.8,4.8c0,2.7-2.2,4.8-4.8,4.8c-2.7,0-4.8-2.2-4.8-4.8C81.1,17.3,83.3,15.1,85.9,15.1z"/></svg>